<svg width="130.457421875px" height="120.83117370605468px" xmlns="http://www.w3.org/2000/svg" viewBox="184.7712890625 14.584413146972658 130.457421875 120.83117370605468" style="background:#051103" preserveAspectRatio="xMidYMid"><defs><linearGradient id="editing-glowing-gradient" x1="0.8146601955249185" x2="0.18533980447508147" y1="0.8885729807284856" y2="0.11142701927151444"><stop offset="0" stop-color="#67ff43"></stop><stop offset="1" stop-color="#90ffff"></stop></linearGradient><filter id="editing-glowing" x="-100%" y="-100%" width="300%" height="300%"><feGaussianBlur in="SourceGraphic" result="blur" stdDeviation="10"></feGaussianBlur><feMerge><feMergeNode in="blur"></feMergeNode><feMergeNode in="SourceGraphic"></feMergeNode></feMerge></filter></defs><g filter="url(#editing-glowing)"><g transform="translate(210.78812408447266, 96.67156219482422)"><path d="M7.17 0L10.88-18.82L10.88-18.82Q9.02-36.16 2.50-39.87L2.50-39.87L2.50-39.87Q3.84-41.54 6.02-42.46L6.02-42.46L6.02-42.46Q8.19-43.39 10.82-43.39L10.82-43.39L10.82-43.39Q13.44-43.39 15.42-42.46L15.42-42.46L15.42-42.46Q17.41-41.54 18.69-39.55L18.69-39.55L18.69-39.55Q21.12-35.78 21.12-26.75L21.12-26.75L21.12-22.14L21.12-22.14Q24.96-33.41 28.80-38.27L28.80-38.27L28.80-38.27Q32.70-43.26 37.57-43.26L37.57-43.26L37.57-43.26Q39.49-43.26 40.77-42.27L40.77-42.27L40.77-42.27Q42.05-41.28 42.69-39.81L42.69-39.81L42.69-39.81Q37.76-37.63 33.02-31.36L33.02-31.36L33.02-31.36Q28.29-25.09 25.22-16.32L25.22-16.32L21.44 0L7.17 0ZM45.31 0L49.02-18.82L49.02-18.82Q47.17-36.16 40.64-39.87L40.64-39.87L40.64-39.87Q41.98-41.54 44.16-42.46L44.16-42.46L44.16-42.46Q46.34-43.39 48.96-43.39L48.96-43.39L48.96-43.39Q51.58-43.39 53.57-42.46L53.57-42.46L53.57-42.46Q55.55-41.54 56.83-39.55L56.83-39.55L56.83-39.55Q59.26-35.78 59.26-26.75L59.26-26.75L59.26-22.14L59.26-22.14Q63.10-33.41 66.94-38.27L66.94-38.27L66.94-38.27Q70.85-43.26 75.71-43.26L75.71-43.26L75.71-43.26Q77.63-43.26 78.91-42.27L78.91-42.27L78.91-42.27Q80.19-41.28 80.83-39.81L80.83-39.81L80.83-39.81Q75.90-37.63 71.17-31.36L71.17-31.36L71.17-31.36Q66.43-25.09 63.36-16.32L63.36-16.32L59.58 0L45.31 0Z" fill="url(#editing-glowing-gradient)"></path></g></g><style>text {
  font-size: 64px;
  font-family: Arial Black;
  dominant-baseline: central;
  text-anchor: middle;
}</style></svg>